# xmcd CD database file
#
# Track frame offsets:
#	150
#	1429
#	20911
#	28211
#	50675
#	80352
#	82967
#	85241
#	87593
#	89790
#	93042
#	95097
#	98349
#	104198
#	106893
#	110192
#	117047
#	122454
#	178176
#	199810
#	214415
#	223014
#	232866
#	244218
#	256008
#	265857
#	275219
#	279296
#	283536
#	288978
#	301127
#
# Disc length: 4060 seconds
#
# Revision: 1
# Processed by: cddbd v1.5.1PL0 Copyright (c) Steve Scherf et al.
# Submitted via: CDex 1.51
#
DISCID=bf0fda1f
DTITLE=Heinrich Heine gelesen von Cornelia Kühn-Leitz - Oh, Deutschland, meine ferne Liebe
DYEAR=1999
DGENRE=Hörbuch
TTITLE0=Ein neues Lied
TTITLE1=Aus den Memoiren
TTITLE2=Mein Kind, wir waren Kinder
TTITLE3=Brief an Freund Christian Sethe
TTITLE4=Fresko-Sonett an Christian S:
TTITLE5=Buch der Lieder: Leise zieht durch mein Gemüt
TTITLE6=Im wunderschönen Monat Mai
TTITLE7=Herz, mein Herz
TTITLE8=Wir fuhren allein im Dunkeln
TTITLE9=Mir träumte wieder der alte Traum
TTITLE10=Hast Du die Lippen mir wundgeküßt
TTITLE11=Wir haben viel füreinander gefühlt
TTITLE12=Sie saßen und tranken am Teetisch
TTITLE13=Sie liebte sich beide
TTITLE14=Der Tod, das ist die kühle Nacht
TTITLE15=Ich weiß nic ht, was soll es bedeuten
TTITLE16=Aus der Harzreise: Die Harzreise
TTITLE17=Die Stadt Göttingen
TTITLE18=Donna Clara
TTITLE19=An die hohe Bundesversammlung
TTITLE20=Anno 1839
TTITLE21=Bei der Nachtwächter Ankunft zu Paris
TTITLE22=Nachtgedanken
TTITLE23=Aus Deutschland ein Wintermärchen: Caput 1
TTITLE24=Caput II
TTITLE25=Enfant perdu
TTITLE26=Laßt die heiligen Parabolen
TTITLE27=Aus den Lamentationen: Stunden Tage Ewigkeiten
TTITLE28=Mein Tag war heiter
TTITLE29=Rückschau
TTITLE30=Wo?
EXTD=YEAR: 1999
EXTT0=
EXTT1=
EXTT2=
EXTT3=
EXTT4=
EXTT5=
EXTT6=
EXTT7=
EXTT8=
EXTT9=
EXTT10=
EXTT11=
EXTT12=
EXTT13=
EXTT14=
EXTT15=
EXTT16=
EXTT17=
EXTT18=
EXTT19=
EXTT20=
EXTT21=
EXTT22=
EXTT23=
EXTT24=
EXTT25=
EXTT26=
EXTT27=
EXTT28=
EXTT29=
EXTT30=
PLAYORDER=
